REM DIRINDEX 1\2\5,1\2\6,1\2\7,1\2\8,1\3\9,1\3\10,1\3\11,1\4\12,1\4\13,1\4\14,1\4\15,1\4\16
REM DIRNAME cjc034,folder01,folder02,folder03,folder04,folder05,folder06,folder07,folder08,folder09,folder10,folder11,folder12,folder13,folder14,folder15
TITLE ""
FILE "1200_2_sec02_0385_0399.mp3" MP3
  TRACK 01 AUDIO
    TITLE "0:"
    INDEX 01 00:00:00
  TRACK 02 AUDIO
    TITLE "10:cjc034_00789"
    INDEX 01 00:00:15
  TRACK 03 AUDIO
    TITLE "0:"
    INDEX 01 00:01:19
  TRACK 04 AUDIO
    TITLE "9:cjc034_00790"
    INDEX 01 00:01:28
  TRACK 05 AUDIO
    TITLE "0:"
    INDEX 01 00:02:45
  TRACK 06 AUDIO
    TITLE "10:cjc034_00791"
    INDEX 01 00:03:27
  TRACK 07 AUDIO
    TITLE "0:"
    INDEX 01 00:04:23
  TRACK 08 AUDIO
    TITLE "9:cjc034_00792"
    INDEX 01 00:04:27
  TRACK 09 AUDIO
    TITLE "0:"
    INDEX 01 00:05:38
  TRACK 10 AUDIO
    TITLE "10:cjc034_00793"
    INDEX 01 00:06:22
  TRACK 11 AUDIO
    TITLE "0:"
    INDEX 01 00:07:47
  TRACK 12 AUDIO
    TITLE "9:cjc034_00794"
    INDEX 01 00:07:52
  TRACK 13 AUDIO
    TITLE "0:"
    INDEX 01 00:09:10
  TRACK 14 AUDIO
    TITLE "10:cjc034_00795"
    INDEX 01 00:09:69
  TRACK 15 AUDIO
    TITLE "0:"
    INDEX 01 00:10:57
  TRACK 16 AUDIO
    TITLE "9:cjc034_00796"
    INDEX 01 00:10:63
  TRACK 17 AUDIO
    TITLE "0:"
    INDEX 01 00:11:64
  TRACK 18 AUDIO
    TITLE "10:cjc034_00797"
    INDEX 01 00:12:48
  TRACK 19 AUDIO
    TITLE "0:"
    INDEX 01 00:13:71
  TRACK 20 AUDIO
    TITLE "9:cjc034_00798"
    INDEX 01 00:14:06
  TRACK 21 AUDIO
    TITLE "0:"
    INDEX 01 00:15:07
  TRACK 22 AUDIO
    TITLE "10:cjc034_00799"
    INDEX 01 00:15:66
  TRACK 23 AUDIO
    TITLE "0:"
    INDEX 01 00:19:44
  TRACK 24 AUDIO
    TITLE "9:cjc034_00800"
    INDEX 01 00:19:46
  TRACK 25 AUDIO
    TITLE "0:"
    INDEX 01 00:20:61
  TRACK 26 AUDIO
    TITLE "10:cjc034_00801"
    INDEX 01 00:21:35
  TRACK 27 AUDIO
    TITLE "0:"
    INDEX 01 00:24:20
  TRACK 28 AUDIO
    TITLE "9:cjc034_00802"
    INDEX 01 00:24:24
  TRACK 29 AUDIO
    TITLE "0:"
    INDEX 01 00:25:64
  TRACK 30 AUDIO
    TITLE "10:cjc034_00803"
    INDEX 01 00:26:48
  TRACK 31 AUDIO
    TITLE "0:"
    INDEX 01 00:28:02
  TRACK 32 AUDIO
    TITLE "9:cjc034_00804"
    INDEX 01 00:28:10
  TRACK 33 AUDIO
    TITLE "0:"
    INDEX 01 00:29:07
  TRACK 34 AUDIO
    TITLE "10:cjc034_00805"
    INDEX 01 00:29:64
  TRACK 35 AUDIO
    TITLE "0:"
    INDEX 01 00:30:63
  TRACK 36 AUDIO
    TITLE "9:cjc034_00806"
    INDEX 01 00:30:67
  TRACK 37 AUDIO
    TITLE "0:"
    INDEX 01 00:32:03
  TRACK 38 AUDIO
    TITLE "10:cjc034_00807"
    INDEX 01 00:32:58
  TRACK 39 AUDIO
    TITLE "0:"
    INDEX 01 00:33:56
  TRACK 40 AUDIO
    TITLE "9:cjc034_00808"
    INDEX 01 00:33:66
  TRACK 41 AUDIO
    TITLE "0:"
    INDEX 01 00:34:73
  TRACK 42 AUDIO
    TITLE "10:cjc034_00809"
    INDEX 01 00:35:57
  TRACK 43 AUDIO
    TITLE "0:"
    INDEX 01 00:36:60
  TRACK 44 AUDIO
    TITLE "9:cjc034_00810"
    INDEX 01 00:36:64
  TRACK 45 AUDIO
    TITLE "0:"
    INDEX 01 00:37:65
  TRACK 46 AUDIO
    TITLE "10:cjc034_00811"
    INDEX 01 00:38:47
  TRACK 47 AUDIO
    TITLE "0:"
    INDEX 01 00:40:56
  TRACK 48 AUDIO
    TITLE "9:cjc034_00812"
    INDEX 01 00:40:64
  TRACK 49 AUDIO
    TITLE "0:"
    INDEX 01 00:41:73
  TRACK 50 AUDIO
    TITLE "10:cjc034_00813"
    INDEX 01 00:42:57
  TRACK 51 AUDIO
    TITLE "0:"
    INDEX 01 00:43:58
  TRACK 52 AUDIO
    TITLE "9:cjc034_00814"
    INDEX 01 00:43:62
  TRACK 53 AUDIO
    TITLE "0:"
    INDEX 01 00:44:65
  TRACK 54 AUDIO
    TITLE "10:cjc034_00815"
    INDEX 01 00:45:47
  TRACK 55 AUDIO
    TITLE "0:"
    INDEX 01 00:46:51
  TRACK 56 AUDIO
    TITLE "9:cjc034_00816"
    INDEX 01 00:46:56
  TRACK 57 AUDIO
    TITLE "0:"
    INDEX 01 00:48:20
  TRACK 58 AUDIO
    TITLE "10:cjc034_00817"
    INDEX 01 00:49:00
  TRACK 59 AUDIO
    TITLE "0:"
    INDEX 01 00:49:61
  TRACK 60 AUDIO
    TITLE "9:cjc034_00818"
    INDEX 01 00:49:65
  TRACK 61 AUDIO
    TITLE "0:"
    INDEX 01 00:50:70
